<?xml version="1.0" encoding="UTF-8"?>
<svg xmlns="http://www.w3.org/2000/svg" style="display:none">
  <!-- Conjunto de ícones minimalistas (compatível com <use href="#id">) -->
  <symbol id="bolt" viewBox="0 0 24 24" fill="currentColor">
    <path d="M13 2L3 14h7l-1 8 10-12h-7l1-8z"/>
  </symbol>
  <symbol id="grid" viewBox="0 0 24 24" fill="currentColor">
    <path d="M3 3h8v8H3V3zm10 0h8v8h-8V3zM3 13h8v8H3v-8zm10 0h8v8h-8v-8z"/>
  </symbol>
  <symbol id="activity" viewBox="0 0 24 24" fill="currentColor">
    <path d="M21 12h-3l-2 7-6-14-2 7H3"/>
  </symbol>
  <symbol id="cpu" viewBox="0 0 24 24" fill="currentColor">
    <path d="M9 3v2H7a2 2 0 0 0-2 2v2H3v2h2v2H3v2h2v2a2 2 0 0 0 2 2h2v2h2v-2h2v2h2v-2h2a2 2 0 0 0 2-2v-2h2v-2h-2v-2h2V9h-2V7a2 2 0 0 0-2-2h-2V3h-2v2h-2V3H9zm-2 6h10v6H7V9z"/>
  </symbol>
  <symbol id="trending-up" viewBox="0 0 24 24" fill="currentColor">
    <path d="M23 6l-9.5 9.5-5-5L1 18"/><path d="M17 6h6v6"/>
  </symbol>
  <symbol id="file-text" viewBox="0 0 24 24" fill="currentColor">
    <path d="M14 2H6a2 2 0 0 0-2 2v16a2 2 0 0 0 2 2h12a2 2 0 0 0 2-2V8z"/><path d="M14 2v6h6"/><path d="M16 13H8M16 17H8M10 9H8"/>
  </symbol>
  <symbol id="settings" viewBox="0 0 24 24" fill="currentColor">
    <path d="M12 15.5a3.5 3.5 0 1 0 0-7 3.5 3.5 0 0 0 0 7z"/><path d="M19.4 15a1.65 1.65 0 0 0 .33 1.82l.06.06a2 2 0 1 1-2.83 2.83l-.06-.06a1.65 1.65 0 0 0-1.82-.33 1.65 1.65 0 0 0-1 1.51V22a2 2 0 1 1-4 0v-.09a1.65 1.65 0 0 0-1-1.51 1.65 1.65 0 0 0-1.82.33l-.06.06a2 2 0 1 1-2.83-2.83l.06-.06a1.65 1.65 0 0 0 .33-1.82 1.65 1.65 0 0 0-1.51-1H2a2 2 0 1 1 0-4h.09a1.65 1.65 0 0 0 1.51-1 1.65 1.65 0 0 0-.33-1.82l-.06-.06A2 2 0 1 1 6.04 3.3l.06.06a1.65 1.65 0 0 0 1.82.33H8a1.65 1.65 0 0 0 1-1.51V2a2 2 0 1 1 4 0v.09a1.65 1.65 0 0 0 1 1.51 1.65 1.65 0 0 0 1.82-.33l.06-.06a2 2 0 1 1 2.83 2.83l-.06.06a1.65 1.65 0 0 0-.33 1.82V9c0 .66.39 1.26 1 1.51.31.12.64.19.98.19H22a2 2 0 1 1 0 4h-.09a1.65 1.65 0 0 0-1.51 1z"/>
  </symbol>

  <symbol id="wifi" viewBox="0 0 24 24" fill="currentColor">
    <path d="M12 20a2 2 0 1 0 .001-4.001A2 2 0 0 0 12 20z"/>
    <path d="M2.88 11.29a12 12 0 0 1 18.24 0l-1.42 1.42a10 10 0 0 0-15.4 0l-1.42-1.42z"/>
    <path d="M6.34 14.76a7 7 0 0 1 11.32 0l-1.42 1.42a5 5 0 0 0-8.48 0l-1.42-1.42z"/>
  </symbol>
  <symbol id="refresh" viewBox="0 0 24 24" fill="currentColor">
    <path d="M3 12a9 9 0 1 0 3-6.708V3H3v6h6V6H6.708A7 7 0 1 1 5 12H3z"/>
  </symbol>
  <symbol id="bell" viewBox="0 0 24 24" fill="currentColor">
    <path d="M18 8a6 6 0 1 0-12 0c0 7-3 9-3 9h18s-3-2-3-9z"/><path d="M13.73 21a2 2 0 0 1-3.46 0"/>
  </symbol>
  <symbol id="sun" viewBox="0 0 24 24" fill="currentColor">
    <circle cx="12" cy="12" r="4"/><path d="M12 2v2M12 20v2M4.93 4.93l1.41 1.41M17.66 17.66l1.41 1.41M2 12h2M20 12h2M4.93 19.07l1.41-1.41M17.66 6.34l1.41-1.41"/>
  </symbol>
  <symbol id="calendar" viewBox="0 0 24 24" fill="currentColor">
    <path d="M7 2v3M17 2v3"/><rect x="3" y="5" width="18" height="16" rx="2"/><path d="M3 10h18"/>
  </symbol>
  <symbol id="caret-down" viewBox="0 0 24 24" fill="currentColor">
    <path d="M6 9l6 6 6-6H6z"/>
  </symbol>
  <symbol id="dollar-sign" viewBox="0 0 24 24" fill="currentColor">
    <path d="M12 1v22M17 5a4 4 0 0 0-4-4 4 4 0 0 0 0 8h2a4 4 0 1 1 0 8H7"/>
  </symbol>
  <symbol id="shield" viewBox="0 0 24 24" fill="currentColor">
    <path d="M12 2l8 4v6c0 5-3.5 9.74-8 10-4.5-.26-8-5-8-10V6l8-4z"/>
  </symbol>
  <symbol id="check-circle" viewBox="0 0 24 24" fill="currentColor">
    <path d="M12 22A10 10 0 1 0 12 2a10 10 0 0 0 0 20z"/><path d="M16 10l-4 4-2-2"/>
  </symbol>
  <symbol id="clock" viewBox="0 0 24 24" fill="currentColor">
    <circle cx="12" cy="12" r="10"/><path d="M12 6v6l4 2"/>
  </symbol>
  <symbol id="alert-triangle" viewBox="0 0 24 24" fill="currentColor">
    <path d="M10.29 3.86L1.82 18a2 2 0 0 0 1.71 3h16.94a2 2 0 0 0 1.71-3L13.71 3.86a2 2 0 0 0-3.42 0z"/><path d="M12 9v4M12 17h.01"/>
  </symbol>
  <symbol id="menu" viewBox="0 0 24 24" fill="currentColor">
    <path d="M3 6h18M3 12h18M3 18h18"/>
  </symbol>
</svg>
